<?xml version="1.0" ?><svg id="Layer_1" style="enable-background:new 0 0 50 50;" version="1.1" viewBox="0 0 50 50" xml:space="preserve" xmlns="http://www.w3.org/2000/svg" xmlns:xlink="http://www.w3.org/1999/xlink"><g id="Layer_1_1_"><path d="M12.866,47.24c3.1,0,6.015-1.207,8.207-3.399l24.894-24.894c3.698-3.698,3.698-9.716,0-13.414   c-3.697-3.698-9.717-3.698-13.414,0L10.418,27.668c-1.391,1.391-2.157,3.241-2.158,5.208s0.765,3.816,2.156,5.207   s3.24,2.157,5.208,2.157c1.967,0,3.816-0.766,5.207-2.157l18.136-18.136l-1.414-1.414L19.417,36.669   c-1.013,1.013-2.36,1.571-3.795,1.571c-1.433,0-2.779-0.558-3.792-1.571s-1.57-2.36-1.57-3.792c0.001-1.434,0.56-2.781,1.572-3.795   L33.967,6.947c2.918-2.918,7.668-2.918,10.586,0s2.918,7.667,0,10.586L19.659,42.427c-1.814,1.814-4.228,2.813-6.793,2.813   c-5.297,0-9.606-4.31-9.606-9.606c0-2.566,0.999-4.979,2.813-6.793L28.967,5.947l-1.414-1.414L4.659,27.427   c-2.192,2.191-3.399,5.106-3.399,8.207C1.26,42.033,6.467,47.24,12.866,47.24z"/></g></svg>